# xmcd
#
# Track frame offsets: 
#        150
#        17200
#        34442
#        47010
#        69145
#        80238
#
# Disc length: 1386 seconds
#
# Revision: 0
# Processed by: cddbd v1.5.2PL0 Copyright (c) Steve Scherf et al.
# Submitted via: ExactAudioCopy v1.0b3
#
DISCID=4b056806
DTITLE=Dead Winter Carpenters - Dirt Nap
DYEAR=2014
DGENRE=Alt Country
TTITLE0=Long Arm of the Law
TTITLE1=Easy Sleep
TTITLE2=Bootleg Jack
TTITLE3=Colorado Wildfire
TTITLE4=Triumph
TTITLE5=West Shore Town
EXTD=
EXTT0=
EXTT1=
EXTT2=
EXTT3=
EXTT4=
EXTT5=
PLAYORDER=
